  0
SECTION
  2
HEADER
  9
$ACADVER
  1
AC1009
  9
$DWGCODEPAGE
  3
ansi_1252
  9
$INSBASE
 10
0.0
 20
0.0
 30
0.0
  9
$EXTMIN
 10
-261.1663100413087
 20
129.9355998683315
 30
-0.0133328143121079
  9
$EXTMAX
 10
-172.8336913470597
 20
218.0230573965349
 30
-0.0133304947151284
  9
$LIMMIN
 10
0.0
 20
0.0
  9
$LIMMAX
 10
12.0
 20
9.0
  9
$ORTHOMODE
 70
     0
  9
$REGENMODE
 70
     1
  9
$FILLMODE
 70
     1
  9
$QTEXTMODE
 70
     0
  9
$MIRRTEXT
 70
     1
  9
$DRAGMODE
 70
     2
  9
$LTSCALE
 40
1.0
  9
$OSMODE
 70
    37
  9
$ATTMODE
 70
     1
  9
$TEXTSIZE
 40
0.2
  9
$TRACEWID
 40
0.05
  9
$TEXTSTYLE
  7
STANDARD
  9
$CLAYER
  8
DEFAULT
  9
$CELTYPE
  6
BYLAYER
  9
$CECOLOR
 62
   256
  9
$DIMSCALE
 40
1.0
  9
$DIMASZ
 40
0.18
  9
$DIMEXO
 40
0.0625
  9
$DIMDLI
 40
0.38
  9
$DIMRND
 40
0.0
  9
$DIMDLE
 40
0.0
  9
$DIMEXE
 40
0.18
  9
$DIMTP
 40
0.0
  9
$DIMTM
 40
0.0
  9
$DIMTXT
 40
0.18
  9
$DIMCEN
 40
0.09
  9
$DIMTSZ
 40
0.0
  9
$DIMTOL
 70
     0
  9
$DIMLIM
 70
     0
  9
$DIMTIH
 70
     1
  9
$DIMTOH
 70
     1
  9
$DIMSE1
 70
     0
  9
$DIMSE2
 70
     0
  9
$DIMTAD
 70
     0
  9
$DIMZIN
 70
     0
  9
$DIMBLK
  1

  9
$DIMASO
 70
     1
  9
$DIMSHO
 70
     1
  9
$DIMPOST
  1

  9
$DIMAPOST
  1

  9
$DIMALT
 70
     0
  9
$DIMALTD
 70
     2
  9
$DIMALTF
 40
25.4
  9
$DIMLFAC
 40
1.0
  9
$DIMTOFL
 70
     0
  9
$DIMTVP
 40
0.0
  9
$DIMTIX
 70
     0
  9
$DIMSOXD
 70
     0
  9
$DIMSAH
 70
     0
  9
$DIMBLK1
  1

  9
$DIMBLK2
  1

  9
$DIMSTYLE
  2
STANDARD_ACAD
  9
$DIMCLRD
 70
     0
  9
$DIMCLRE
 70
     0
  9
$DIMCLRT
 70
     0
  9
$DIMTFAC
 40
1.0
  9
$DIMGAP
 40
0.09
  9
$LUNITS
 70
     2
  9
$LUPREC
 70
     3
  9
$SKETCHINC
 40
0.1
  9
$FILLETRAD
 40
0.0
  9
$AUNITS
 70
     0
  9
$AUPREC
 70
     0
  9
$MENU
  1
.
  9
$ELEVATION
 40
0.0
  9
$PELEVATION
 40
0.0
  9
$THICKNESS
 40
0.0
  9
$LIMCHECK
 70
     0
  9
$CHAMFERA
 40
0.0
  9
$CHAMFERB
 40
0.0
  9
$SKPOLY
 70
     0
  9
$TDCREATE
 40
2460287.759800116
  9
$TDUPDATE
 40
2460287.75981044
  9
$TDINDWG
 40
0.0000000116
  9
$TDUSRTIMER
 40
0.0000000116
  9
$USRTIMER
 70
     1
  9
$ANGBASE
 50
0.0
  9
$ANGDIR
 70
     0
  9
$PDMODE
 70
     0
  9
$PDSIZE
 40
0.0
  9
$PLINEWID
 40
0.0
  9
$COORDS
 70
     1
  9
$SPLFRAME
 70
     0
  9
$SPLINETYPE
 70
     6
  9
$SPLINESEGS
 70
     8
  9
$ATTDIA
 70
     0
  9
$ATTREQ
 70
     1
  9
$HANDLING
 70
     1
  9
$HANDSEED
  5
93
  9
$SURFTAB1
 70
     6
  9
$SURFTAB2
 70
     6
  9
$SURFTYPE
 70
     6
  9
$SURFU
 70
     6
  9
$SURFV
 70
     6
  9
$UCSNAME
  2

  9
$UCSORG
 10
0.0
 20
0.0
 30
0.0
  9
$UCSXDIR
 10
1.0
 20
0.0
 30
0.0
  9
$UCSYDIR
 10
0.0
 20
1.0
 30
0.0
  9
$PUCSNAME
  2

  9
$PUCSORG
 10
0.0
 20
0.0
 30
0.0
  9
$PUCSXDIR
 10
1.0
 20
0.0
 30
0.0
  9
$PUCSYDIR
 10
0.0
 20
1.0
 30
0.0
  9
$USERI1
 70
     0
  9
$USERI2
 70
     0
  9
$USERI3
 70
     0
  9
$USERI4
 70
     0
  9
$USERI5
 70
     0
  9
$USERR1
 40
0.0
  9
$USERR2
 40
0.0
  9
$USERR3
 40
0.0
  9
$USERR4
 40
0.0
  9
$USERR5
 40
0.0
  9
$WORLDVIEW
 70
     1
  9
$SHADEDGE
 70
     3
  9
$SHADEDIF
 70
    70
  9
$TILEMODE
 70
     1
  9
$MAXACTVP
 70
    64
  9
$PLIMCHECK
 70
     0
  9
$PEXTMIN
 10
1.000000000000000E+20
 20
1.000000000000000E+20
 30
1.000000000000000E+20
  9
$PEXTMAX
 10
-1.000000000000000E+20
 20
-1.000000000000000E+20
 30
-1.000000000000000E+20
  9
$PLIMMIN
 10
0.0
 20
0.0
  9
$PLIMMAX
 10
12.0
 20
9.0
  9
$UNITMODE
 70
     0
  9
$VISRETAIN
 70
     1
  9
$PLINEGEN
 70
     0
  9
$PSLTSCALE
 70
     1
  0
ENDSEC
  0
SECTION
  2
TABLES
  0
TABLE
  2
VPORT
 70
     1
  0
VPORT
  2
*ACTIVE
 70
     0
 10
0.0
 20
0.0
 11
1.0
 21
1.0
 12
10.42990654205607
 22
4.5
 13
0.0
 23
0.0
 14
0.5
 24
0.5
 15
0.5
 25
0.5
 16
0.0
 26
0.0
 36
1.0
 17
0.0
 27
0.0
 37
0.0
 40
9.0
 41
1.972972972850329
 42
50.0
 43
0.0
 44
0.0
 50
0.0
 51
0.0
 71
     0
 72
   100
 73
     1
 74
     3
 75
     0
 76
     0
 77
     0
 78
     0
  0
ENDTAB
  0
TABLE
  2
LTYPE
 70
     1
  0
LTYPE
  2
CONTINUOUS
 70
     0
  3
Solid line
 72
    65
 73
     0
 40
0.0
  0
ENDTAB
  0
TABLE
  2
LAYER
 70
     2
  0
LAYER
  2
0
 70
     0
 62
     7
  6
CONTINUOUS
  0
LAYER
  2
DEFAULT
 70
     0
 62
     7
  6
CONTINUOUS
  0
ENDTAB
  0
TABLE
  2
STYLE
 70
     1
  0
STYLE
  2
STANDARD
 70
     0
 40
0.0
 41
1.0
 50
0.0
 71
     0
 42
0.2
  3
txt
  4

  0
ENDTAB
  0
TABLE
  2
VIEW
 70
     0
  0
ENDTAB
  0
TABLE
  2
UCS
 70
     0
  0
ENDTAB
  0
TABLE
  2
APPID
 70
     2
  0
APPID
  2
ACAD
 70
     0
  0
APPID
  2
RHINO
 70
     0
  0
ENDTAB
  0
TABLE
  2
DIMSTYLE
 70
     1
  0
DIMSTYLE
  2
STANDARD_ACAD
 70
     0
  3

  4

  5

  6

  7

 40
1.0
 41
0.18
 42
0.0625
 43
0.38
 44
0.18
 45
0.0
 46
0.0
 47
0.0
 48
0.0
140
0.18
141
0.09
142
0.0
143
25.4
144
1.0
145
0.0
146
1.0
147
0.09
 71
     0
 72
     0
 73
     1
 74
     1
 75
     0
 76
     0
 77
     0
 78
     0
170
     0
171
     2
172
     0
173
     0
174
     0
175
     0
176
     0
177
     0
178
     0
  0
ENDTAB
  0
ENDSEC
  0
SECTION
  2
BLOCKS
  0
BLOCK
  8
0
  2
$MODEL_SPACE
 70
     0
 10
0.0
 20
0.0
 30
0.0
  3
$MODEL_SPACE
  1

  0
ENDBLK
  5
21
  8
0
  0
BLOCK
 67
     1
  8
0
  2
$PAPER_SPACE
 70
     0
 10
0.0
 20
0.0
 30
0.0
  3
$PAPER_SPACE
  1

  0
ENDBLK
  5
1D
 67
     1
  8
0
  0
ENDSEC
  0
SECTION
  2
ENTITIES
  0
CIRCLE
  5
60
  8
DEFAULT
 10
-234.6909985354027
 20
156.3223304703399
 30
-0.0133317390336174
 40
3.0
  0
CIRCLE
  5
61
  8
DEFAULT
 10
-199.3356594760848
 20
156.3223304703421
 30
-0.0133317390336419
 40
3.0
  0
CIRCLE
  5
62
  8
DEFAULT
 10
-199.3356594760828
 20
191.67766952966
 30
-0.0133317390336742
 40
3.0
  0
CIRCLE
  5
63
  8
DEFAULT
 10
-234.6909985354048
 20
191.6776695296578
 30
-0.0133317390335964
 40
3.0
  0
ARC
  5
64
  8
DEFAULT
 10
191.2410598975022
 20
148.1396780582754
 30
0.0132934269828588
 40
3.039984258321627
 50
281.4926667677614
 51
356.2086123682837
210
9.361314505813055E-8
220
-1.370760400111342E-7
230
-0.9999999999999863
  0
LINE
  5
65
  8
DEFAULT
 10
-194.2743909025662
 20
147.9386623928974
 30
-0.013331892465601
 11
-194.2502528230179
 21
148.5712790625312
 31
-0.0133319815727759
  0
ARC
  5
66
  8
DEFAULT
 10
191.2410449842267
 20
148.1396910900438
 30
0.0133029605861967
 40
3.040000000000032
 50
8.16184200966839
 51
44.99999999999886
210
4.168019994357597E-8
220
-1.408387767432105E-7
230
-0.9999999999999892
  0
ARC
  5
67
  8
DEFAULT
 10
191.2410449844162
 20
148.1396910902861
 30
0.0132974758047419
 40
3.039999999999551
 50
44.99999999999811
 51
81.44138594215288
210
5.588557410749521E-8
220
-1.590542784165244E-7
230
-0.9999999999999858
  0
ARC
  5
68
  8
DEFAULT
 10
191.2410439477162
 20
148.1396910637354
 30
0.0132899216773031
 40
3.04000018062845
 50
81.44136668571167
 51
281.492912514371
210
9.434689860112894E-8
220
-1.602540668380645E-7
230
-0.9999999999999828
  0
ARC
  5
69
  8
DEFAULT
 10
-191.2410598975019
 20
199.8189792065875
 30
-0.0133411237776842
 40
3.039984258321779
 50
101.4926667677646
 51
176.2086123682833
210
-9.361314505812616E-8
220
-1.370760400111338E-7
230
0.9999999999999863
  0
LINE
  5
6A
  8
DEFAULT
 10
-194.2743909025662
 20
200.0199948719688
 30
-0.013331892465601
 11
-194.2502528230179
 21
199.3873782023351
 31
-0.0133319815727759
  0
ARC
  5
6B
  8
DEFAULT
 10
-191.2410449842263
 20
199.8189661748191
 30
-0.0133519666578431
 40
3.04000000000041
 50
188.161842009669
 51
224.9999999999962
210
-4.168019994358095E-8
220
-1.408387767432091E-7
230
0.9999999999999892
  0
ARC
  5
6C
  8
DEFAULT
 10
-191.2410449844162
 20
199.8189661745758
 30
-0.013352820117892
 40
3.039999999999631
 50
224.9999999999996
 51
261.4413859421531
210
-5.588557410749974E-8
220
-1.590542784165387E-7
230
0.9999999999999858
  0
ARC
  5
6D
  8
DEFAULT
 10
-191.2410439477161
 20
199.8189662011264
 30
-0.0133456834672213
 40
3.040000180628478
 50
261.4413666857117
 51
101.492912514371
210
-9.434689860113342E-8
220
-1.602540668380638E-7
230
0.9999999999999828
  0
ARC
  5
6E
  8
DEFAULT
 10
-242.8598400087252
 20
199.8189661774357
 30
-0.0133497866311068
 40
3.03999999999988
 50
251.66913183821
 51
21.01402580180312
210
1.169817887188240E-7
220
5.527816574723060E-8
230
0.9999999999999917
  0
ARC
  5
6F
  8
DEFAULT
 10
-242.859840009926
 20
199.8189661759806
 30
-0.0133498757411069
 40
3.039999999975104
 50
21.01402580174547
 51
28.86567530967577
210
2.538482762296432E-8
220
-5.459439806983147E-8
230
0.9999999999999982
  0
ARC
  5
70
  8
DEFAULT
 10
-242.8598394338724
 20
199.8189666434953
 30
-0.0133932180419913
 40
3.039999274048938
 50
28.86567282804863
 51
49.42626054207453
210
3.159272638836508E-7
220
7.678685889743915E-8
230
0.9999999999999472
  0
ARC
  5
71
  8
DEFAULT
 10
-242.8598410499111
 20
199.8189671410035
 30
-0.0133941949623573
 40
3.039999945143717
 50
49.42623130711247
 51
225.0000267533393
210
2.162076567177388E-7
220
-4.688539815240534E-8
230
0.9999999999999756
  0
ARC
  5
72
  8
DEFAULT
 10
-242.8598400090294
 20
199.8189661751723
 30
-0.0133748291627017
 40
3.039999999090544
 50
224.999999995938
 51
251.6691318422773
210
1.309514440441480E-7
220
-5.458905870061526E-8
230
0.99999999999999
  0
ARC
  5
73
  8
DEFAULT
 10
242.8598400087253
 20
148.1396910874301
 30
0.0133690211474363
 40
3.039999999999853
 50
71.66913183820985
 51
201.0140258018028
210
-1.169817887188214E-7
220
5.527816574723266E-8
230
-0.9999999999999917
  0
ARC
  5
74
  8
DEFAULT
 10
242.8598400099187
 20
148.1396910888815
 30
0.0133308791476603
 40
3.03999999996686
 50
201.0140258017294
 51
208.8656753096801
210
-2.538482762277693E-8
220
-5.459439806992652E-8
230
-0.9999999999999982
  0
ARC
  5
75
  8
DEFAULT
 10
242.8598394338746
 20
148.1396906213718
 30
0.0134199366943089
 40
3.039999274051744
 50
208.865672828058
 51
229.4262605420666
210
-3.159272638837123E-7
220
7.678685889750540E-8
230
-0.9999999999999472
  0
ARC
  5
76
  8
DEFAULT
 10
242.8598410499112
 20
148.1396901238624
 30
0.0133778807821708
 40
3.039999945143733
 50
229.4262313071113
 51
45.00002675334198
210
-2.162076567177373E-7
220
-4.688539815239953E-8
230
-0.9999999999999756
  0
ARC
  5
77
  8
DEFAULT
 10
242.859840009032
 20
148.1396910896979
 30
0.0133558344271349
 40
3.0399999990856
 50
44.99999999591375
 51
71.66913184229597
210
-1.309514440440714E-7
220
-5.458905870075245E-8
230
-0.99999999999999
  0
ARC
  5
78
  8
DEFAULT
 10
217.7731401891671
 20
173.6822884087493
 30
0.0133304947173372
 40
43.38070929084183
 50
329.554245591273
 51
349.1793980827094
210
0.0
220
0.0
230
-1.0
  0
ARC
  5
79
  8
DEFAULT
 10
217.1465369828027
 20
173.8080047602576
 30
0.0133304947173372
 40
44.01977305850598
 50
349.1717889136413
 51
0.2229943251692015
210
0.0
220
0.0
230
-1.0
  0
ARC
  5
7A
  8
DEFAULT
 10
217.1465369828032
 20
174.150652504609
 30
0.0133304947173372
 40
44.01977305850549
 50
359.7770056748309
 51
10.82821108635872
210
0.0
220
0.0
230
-1.0
  0
ARC
  5
7B
  8
DEFAULT
 10
217.7731401891655
 20
174.2763688561163
 30
0.0133304947173372
 40
43.38070929084351
 50
10.82060191729145
 51
30.44575440872694
210
0.0
220
0.0
230
-1.0
  0
ARC
  5
7C
  8
DEFAULT
 10
217.6205262478264
 20
174.2207717981465
 30
0.0133304947178031
 40
43.54046138867687
 50
30.4070635067232
 51
50.39922363173827
210
0.0
220
0.0
230
-1.0
  0
ARC
  5
7D
  8
DEFAULT
 10
216.6830408617757
 20
172.9915629240926
 30
0.0133304947173656
 40
45.08519949199543
 50
50.47700279385344
 51
70.63256946366779
210
0.0
220
0.0
230
-1.0
  0
ARC
  5
7E
  8
DEFAULT
 10
216.8971302417921
 20
173.2951151399579
 30
0.0133304947151284
 40
44.72794225657702
 50
70.7623446172982
 51
91.26854113512526
210
0.0
220
0.0
230
-1.0
  0
ARC
  5
7F
  8
DEFAULT
 10
216.993169992669
 20
173.2005584179102
 30
0.0133304947173035
 40
44.82470037184891
 50
91.3885952207346
 51
111.3794548748345
210
0.0
220
0.0
230
-1.0
  0
ARC
  5
80
  8
DEFAULT
 10
216.5796806873168
 20
174.3470920256767
 30
0.0133304947173087
 40
43.60634148560465
 50
111.422716088401
 51
131.0356169250742
210
0.0
220
0.0
230
-1.0
  0
ARC
  5
81
  8
DEFAULT
 10
216.7661378801584
 20
174.1322063010584
 30
0.0133304947173271
 40
43.89084451311553
 50
131.0350509668062
 51
149.9737995973605
210
0.0
220
0.0
230
-1.0
  0
ARC
  5
82
  8
DEFAULT
 10
217.1516137954387
 20
173.9269300147369
 30
0.0133304947173372
 40
44.32731029669243
 50
149.9933987970454
 51
168.5595719806606
210
0.0
220
0.0
230
-1.0
  0
ARC
  5
83
  8
DEFAULT
 10
217.0277430995049
 20
173.9867341668971
 30
0.0133304947173372
 40
44.19405175244522
 50
168.6037116273307
 51
180.0096009724158
210
0.0
220
0.0
230
-1.0
  0
ARC
  5
84
  8
DEFAULT
 10
217.0277430995095
 20
173.9719230979698
 30
0.0133304947173372
 40
44.19405175244975
 50
179.9903990275853
 51
191.396288372669
210
0.0
220
0.0
230
-1.0
  0
ARC
  5
85
  8
DEFAULT
 10
217.1516137954349
 20
174.031727250128
 30
0.0133304947173372
 40
44.32731029668833
 50
191.4404280193387
 51
210.0066012029557
210
0.0
220
0.0
230
-1.0
  0
ARC
  5
86
  8
DEFAULT
 10
216.7661378801569
 20
173.8264509638065
 30
0.0133304947173271
 40
43.89084451311356
 50
210.026200402639
 51
228.9649490331942
210
0.0
220
0.0
230
-1.0
  0
ARC
  5
87
  8
DEFAULT
 10
216.5796806873167
 20
173.6115652391898
 30
0.0133304947173087
 40
43.60634148560477
 50
228.9643830749261
 51
248.5772839115993
210
0.0
220
0.0
230
-1.0
  0
ARC
  5
88
  8
DEFAULT
 10
216.9931699926685
 20
174.758098846955
 30
0.0133304947173035
 40
44.82470037184773
 50
248.6205451251658
 51
268.6114047792661
210
0.0
220
0.0
230
-1.0
  0
ARC
  5
89
  8
DEFAULT
 10
216.897130241793
 20
174.663542124903
 30
0.0133304947151284
 40
44.72794225657159
 50
268.7314588648736
 51
289.2376553827031
210
0.0
220
0.0
230
-1.0
  0
ARC
  5
8A
  8
DEFAULT
 10
216.6830408617761
 20
174.9670943407733
 30
0.0133304947173656
 40
45.08519949199484
 50
289.3674305363321
 51
309.5229972061468
210
0.0
220
0.0
230
-1.0
  0
ARC
  5
8B
  8
DEFAULT
 10
217.620526247825
 20
173.7378854667211
 30
0.0133304947178031
 40
43.54046138867873
 50
309.6007763682622
 51
329.5929364932763
210
0.0
220
0.0
230
-1.0
  0
ENDSEC
  0
EOF
